<mxfile host="app.diagrams.net" modified="2024-01-29T20:45:35.403Z" agent="Mozilla/5.0 (Windows NT 10.0; Win64; x64) AppleWebKit/537.36 (KHTML, like Gecko) Chrome/120.0.0.0 Safari/537.36" etag="pmAZLSXIEZGTRR2TbQnD" version="23.0.2" type="github">
  <diagram name="Page-1" id="b5b7bab2-c9e2-2cf4-8b2a-24fd1a2a6d21">
    <mxGraphModel dx="573" dy="623" grid="1" gridSize="10" guides="1" tooltips="1" connect="1" arrows="1" fold="1" page="1" pageScale="1" pageWidth="827" pageHeight="1169" background="none" math="0" shadow="0">
      <root>
        <mxCell id="0" />
        <mxCell id="1" parent="0" />
        <mxCell id="6e0c8c40b5770093-72" value="" style="shape=folder;fontStyle=1;spacingTop=10;tabWidth=194;tabHeight=22;tabPosition=left;html=1;rounded=0;shadow=0;comic=0;labelBackgroundColor=none;strokeWidth=1;fillColor=none;fontFamily=Verdana;fontSize=10;align=center;" parent="1" vertex="1">
          <mxGeometry x="326.5" y="114.5" width="1001" height="940" as="geometry" />
        </mxCell>
        <mxCell id="6e0c8c40b5770093-73" value="Tables/" style="text;html=1;align=left;verticalAlign=top;spacingTop=-4;fontSize=10;fontFamily=Verdana" parent="1" vertex="1">
          <mxGeometry x="327.5" y="114.5" width="130" height="20" as="geometry" />
        </mxCell>
        <mxCell id="4D2KUN2qtp8BIXEV7Nxe-2" value="users" style="shape=folder;fontStyle=1;tabWidth=110;tabHeight=30;tabPosition=left;html=1;boundedLbl=1;labelInHeader=1;container=1;collapsible=0;whiteSpace=wrap;" parent="1" vertex="1">
          <mxGeometry x="350" y="160" width="250" height="430" as="geometry" />
        </mxCell>
        <mxCell id="4D2KUN2qtp8BIXEV7Nxe-3" value="" style="html=1;strokeColor=none;resizeWidth=1;resizeHeight=1;fillColor=none;part=1;connectable=0;allowArrows=0;deletable=0;whiteSpace=wrap;" parent="4D2KUN2qtp8BIXEV7Nxe-2" vertex="1">
          <mxGeometry width="250" height="236.5" relative="1" as="geometry">
            <mxPoint y="30" as="offset" />
          </mxGeometry>
        </mxCell>
        <mxCell id="UoIO06quhYjkKZxkM91f-46" value="Users" style="swimlane;fontStyle=0;childLayout=stackLayout;horizontal=1;startSize=26;fillColor=none;horizontalStack=0;resizeParent=1;resizeParentMax=0;resizeLast=0;collapsible=1;marginBottom=0;whiteSpace=wrap;html=1;" vertex="1" parent="4D2KUN2qtp8BIXEV7Nxe-2">
          <mxGeometry x="20" y="50.00153846153847" width="160" height="170" as="geometry">
            <mxRectangle x="30" y="66.67058823529412" width="70" height="30" as="alternateBounds" />
          </mxGeometry>
        </mxCell>
        <mxCell id="UoIO06quhYjkKZxkM91f-49" value="first_name : String" style="text;strokeColor=none;fillColor=none;align=left;verticalAlign=top;spacingLeft=4;spacingRight=4;overflow=hidden;rotatable=0;points=[[0,0.5],[1,0.5]];portConstraint=eastwest;whiteSpace=wrap;html=1;" vertex="1" parent="UoIO06quhYjkKZxkM91f-46">
          <mxGeometry y="26" width="160" height="23.500000000000004" as="geometry" />
        </mxCell>
        <mxCell id="UoIO06quhYjkKZxkM91f-50" value="last_name: String" style="text;strokeColor=none;fillColor=none;align=left;verticalAlign=top;spacingLeft=4;spacingRight=4;overflow=hidden;rotatable=0;points=[[0,0.5],[1,0.5]];portConstraint=eastwest;whiteSpace=wrap;html=1;" vertex="1" parent="UoIO06quhYjkKZxkM91f-46">
          <mxGeometry y="49.5" width="160" height="23.500000000000004" as="geometry" />
        </mxCell>
        <mxCell id="UoIO06quhYjkKZxkM91f-51" value="display_name : String" style="text;strokeColor=none;fillColor=none;align=left;verticalAlign=top;spacingLeft=4;spacingRight=4;overflow=hidden;rotatable=0;points=[[0,0.5],[1,0.5]];portConstraint=eastwest;whiteSpace=wrap;html=1;" vertex="1" parent="UoIO06quhYjkKZxkM91f-46">
          <mxGeometry y="73" width="160" height="23.500000000000004" as="geometry" />
        </mxCell>
        <mxCell id="UoIO06quhYjkKZxkM91f-52" value="email : String" style="text;strokeColor=none;fillColor=none;align=left;verticalAlign=top;spacingLeft=4;spacingRight=4;overflow=hidden;rotatable=0;points=[[0,0.5],[1,0.5]];portConstraint=eastwest;whiteSpace=wrap;html=1;" vertex="1" parent="UoIO06quhYjkKZxkM91f-46">
          <mxGeometry y="96.5" width="160" height="23.500000000000004" as="geometry" />
        </mxCell>
        <mxCell id="UoIO06quhYjkKZxkM91f-53" value="verified : Boolean" style="text;strokeColor=none;fillColor=none;align=left;verticalAlign=top;spacingLeft=4;spacingRight=4;overflow=hidden;rotatable=0;points=[[0,0.5],[1,0.5]];portConstraint=eastwest;whiteSpace=wrap;html=1;" vertex="1" parent="UoIO06quhYjkKZxkM91f-46">
          <mxGeometry y="120" width="160" height="23.500000000000004" as="geometry" />
        </mxCell>
        <mxCell id="UoIO06quhYjkKZxkM91f-54" value="last_login : Time" style="text;strokeColor=none;fillColor=none;align=left;verticalAlign=top;spacingLeft=4;spacingRight=4;overflow=hidden;rotatable=0;points=[[0,0.5],[1,0.5]];portConstraint=eastwest;whiteSpace=wrap;html=1;" vertex="1" parent="UoIO06quhYjkKZxkM91f-46">
          <mxGeometry y="143.5" width="160" height="26.5" as="geometry" />
        </mxCell>
      </root>
    </mxGraphModel>
  </diagram>
</mxfile>
